<svg width="56" height="56" viewBox="0 0 56 56" fill="none" xmlns="http://www.w3.org/2000/svg">
<path d="M51.3345 2.54416C51.3345 3.71573 52.2843 4.66548 53.4558 4.66548C54.6274 4.66548 55.5771 3.71573 55.5771 2.54416C55.5771 1.37258 54.6274 0.422836 53.4558 0.422836C52.2843 0.422836 51.3345 1.37258 51.3345 2.54416Z" fill="#582A6C"/>
<path d="M51.3345 28C51.3345 29.1716 52.2843 30.1213 53.4558 30.1213C54.6274 30.1213 55.5771 29.1716 55.5771 28C55.5771 26.8284 54.6274 25.8787 53.4558 25.8787C52.2843 25.8787 51.3345 26.8284 51.3345 28Z" fill="#582A6C"/>
<path d="M51.3345 15.2721C51.3345 16.4437 52.2843 17.3934 53.4558 17.3934C54.6274 17.3934 55.5771 16.4437 55.5771 15.2721C55.5771 14.1005 54.6274 13.1508 53.4558 13.1508C52.2843 13.1508 51.3345 14.1005 51.3345 15.2721Z" fill="#582A6C"/>
<path d="M51.3345 40.7279C51.3345 41.8995 52.2843 42.8492 53.4558 42.8492C54.6274 42.8492 55.5771 41.8995 55.5771 40.7279C55.5771 39.5563 54.6274 38.6066 53.4558 38.6066C52.2843 38.6066 51.3345 39.5563 51.3345 40.7279Z" fill="#582A6C"/>
<path d="M51.3345 53.4558C51.3345 54.6274 52.2843 55.5772 53.4558 55.5772C54.6274 55.5772 55.5771 54.6274 55.5771 53.4558C55.5771 52.2843 54.6274 51.3345 53.4558 51.3345C52.2843 51.3345 51.3345 52.2843 51.3345 53.4558Z" fill="#582A6C"/>
<path d="M38.6066 2.54416C38.6066 3.71573 39.5563 4.66548 40.7279 4.66548C41.8995 4.66548 42.8492 3.71573 42.8492 2.54416C42.8492 1.37258 41.8995 0.422836 40.7279 0.422836C39.5563 0.422836 38.6066 1.37258 38.6066 2.54416Z" fill="#582A6C"/>
<path d="M38.6066 28C38.6066 29.1716 39.5563 30.1213 40.7279 30.1213C41.8995 30.1213 42.8492 29.1716 42.8492 28C42.8492 26.8284 41.8995 25.8787 40.7279 25.8787C39.5563 25.8787 38.6066 26.8284 38.6066 28Z" fill="#582A6C"/>
<path d="M38.6066 15.2721C38.6066 16.4437 39.5563 17.3934 40.7279 17.3934C41.8995 17.3934 42.8492 16.4437 42.8492 15.2721C42.8492 14.1005 41.8995 13.1508 40.7279 13.1508C39.5563 13.1508 38.6066 14.1005 38.6066 15.2721Z" fill="#582A6C"/>
<path d="M38.6066 40.7279C38.6066 41.8995 39.5563 42.8492 40.7279 42.8492C41.8995 42.8492 42.8492 41.8995 42.8492 40.7279C42.8492 39.5563 41.8995 38.6066 40.7279 38.6066C39.5563 38.6066 38.6066 39.5563 38.6066 40.7279Z" fill="#582A6C"/>
<path d="M25.8787 40.7279C25.8787 41.8995 26.8284 42.8492 28 42.8492C29.1716 42.8492 30.1213 41.8995 30.1213 40.7279C30.1213 39.5563 29.1716 38.6066 28 38.6066C26.8284 38.6066 25.8787 39.5563 25.8787 40.7279Z" fill="#582A6C"/>
<path d="M13.1507 40.7279C13.1507 41.8995 14.1005 42.8492 15.2721 42.8492C16.4436 42.8492 17.3934 41.8995 17.3934 40.7279C17.3934 39.5563 16.4436 38.6066 15.2721 38.6066C14.1005 38.6066 13.1507 39.5563 13.1507 40.7279Z" fill="#582A6C"/>
<path d="M38.6066 53.4558C38.6066 54.6274 39.5563 55.5772 40.7279 55.5772C41.8995 55.5772 42.8492 54.6274 42.8492 53.4558C42.8492 52.2843 41.8995 51.3345 40.7279 51.3345C39.5563 51.3345 38.6066 52.2843 38.6066 53.4558Z" fill="#582A6C"/>
<path d="M25.8787 2.54416C25.8787 3.71573 26.8284 4.66548 28 4.66548C29.1716 4.66548 30.1213 3.71573 30.1213 2.54416C30.1213 1.37258 29.1716 0.422836 28 0.422836C26.8284 0.422836 25.8787 1.37258 25.8787 2.54416Z" fill="#582A6C"/>
<path d="M25.8787 28C25.8787 29.1716 26.8284 30.1213 28 30.1213C29.1716 30.1213 30.1213 29.1716 30.1213 28C30.1213 26.8284 29.1716 25.8787 28 25.8787C26.8284 25.8787 25.8787 26.8284 25.8787 28Z" fill="#582A6C"/>
<path d="M13.1507 28C13.1507 29.1716 14.1005 30.1213 15.2721 30.1213C16.4436 30.1213 17.3934 29.1716 17.3934 28C17.3934 26.8284 16.4436 25.8787 15.2721 25.8787C14.1005 25.8787 13.1507 26.8284 13.1507 28Z" fill="#582A6C"/>
<path d="M25.8787 15.2721C25.8787 16.4437 26.8284 17.3934 28 17.3934C29.1716 17.3934 30.1213 16.4437 30.1213 15.2721C30.1213 14.1005 29.1716 13.1508 28 13.1508C26.8284 13.1508 25.8787 14.1005 25.8787 15.2721Z" fill="#582A6C"/>
<path d="M13.1507 2.54416C13.1507 3.71573 14.1005 4.66548 15.2721 4.66548C16.4436 4.66548 17.3934 3.71573 17.3934 2.54416C17.3934 1.37258 16.4436 0.422836 15.2721 0.422836C14.1005 0.422836 13.1507 1.37258 13.1507 2.54416Z" fill="#582A6C"/>
<path d="M13.1507 15.2721C13.1507 16.4437 14.1005 17.3934 15.2721 17.3934C16.4436 17.3934 17.3934 16.4437 17.3934 15.2721C17.3934 14.1005 16.4436 13.1508 15.2721 13.1508C14.1005 13.1508 13.1507 14.1005 13.1507 15.2721Z" fill="#582A6C"/>
<path d="M0.422821 2.54416C0.422821 3.71573 1.37257 4.66548 2.54414 4.66548C3.71571 4.66548 4.66546 3.71573 4.66546 2.54416C4.66546 1.37258 3.71571 0.422836 2.54414 0.422836C1.37257 0.422836 0.422821 1.37258 0.422821 2.54416Z" fill="#582A6C"/>
<path d="M0.422821 15.2721C0.422821 16.4437 1.37257 17.3934 2.54414 17.3934C3.71571 17.3934 4.66546 16.4437 4.66546 15.2721C4.66546 14.1005 3.71571 13.1508 2.54414 13.1508C1.37257 13.1508 0.422821 14.1005 0.422821 15.2721Z" fill="#582A6C"/>
</svg>
