<svg width="202" height="331" viewBox="0 0 202 331" fill="none" xmlns="http://www.w3.org/2000/svg">
<path d="M90.5504 0.237136C64.0052 5.0911 47.1668 13.6103 30.4274 30.3515C16.8576 44.0219 7.84414 59.7725 2.69357 78.8911C0.118283 88.5991 -0.079816 90.4812 0.0192334 107.619C0.118283 134.266 3.38691 147.441 15.2728 171.017C19.9282 180.131 52.6145 224.114 83.9141 263.342L86.8856 267.106H102.535H118.185L129.873 251.554C142.948 234.218 149.287 225.303 161.965 206.184C193.661 158.338 201.981 137.139 201.882 104.152C201.882 92.5615 201.387 87.3113 199.802 80.377C195.345 61.6546 187.025 46.1021 173.554 31.8374C154.338 11.53 131.458 1.02962 104.417 0.138076C98.1772 -0.060045 91.9371 -0.060045 90.5504 0.237136ZM114.124 3.10989C114.421 3.40707 113.629 5.78452 112.341 8.45915C109.469 14.799 107.29 15.1953 94.8095 11.9263C89.4608 10.6385 82.3293 9.25164 78.8626 8.8554C75.4949 8.55822 72.4244 7.96385 72.2263 7.46855C71.5329 6.47795 76.5844 4.99204 85.1027 3.70425C88.9656 3.10989 93.1257 2.41647 94.5124 2.21835C97.682 1.62398 113.431 2.31741 114.124 3.10989ZM125.416 5.19016C133.043 7.07231 139.085 9.54882 139.085 10.5394C139.085 11.0347 136.113 11.6291 132.448 12.0253C128.684 12.4216 123.138 13.3131 119.968 14.1056C116.798 14.8981 113.827 15.2943 113.332 14.9971C112.242 14.3037 117.195 3.60519 118.581 3.60519C119.077 3.60519 122.147 4.29862 125.416 5.19016ZM87.5789 13.0159C96.4934 14.7 102.733 16.7802 103.229 18.2661C103.427 18.8605 100.752 20.6436 97.2858 22.3276C88.8666 26.29 80.5464 31.8374 72.5234 38.5735C68.9576 41.6444 65.3918 44.22 64.7975 44.22C64.1042 44.22 60.6375 41.4463 57.0717 38.1773C53.4069 34.8092 48.0582 30.5496 45.2848 28.5684C42.4124 26.6863 40.0352 24.8041 40.0352 24.3088C40.0352 23.9126 41.4219 22.7239 43.0067 21.7333C44.6905 20.8417 45.9782 19.653 45.9782 19.2567C45.9782 18.8605 46.4734 18.4643 47.0677 18.4643C47.662 18.4643 50.7325 16.8793 53.9021 15.0962C62.0242 10.3413 70.1462 9.846 87.5789 13.0159ZM155.23 18.6624C158.597 20.9408 164.937 26.3891 169.394 30.7478C177.12 38.4745 186.628 51.2533 186.628 53.9279C186.628 54.6213 183.261 58.5837 179.101 62.6452C172.464 69.2823 171.276 70.0748 168.998 69.4804C167.512 69.0842 166.323 68.787 166.323 68.6879C166.323 68.5889 164.045 65.2208 161.371 61.1593C151.763 46.8946 132.944 29.2619 119.968 22.4267C117.393 21.0398 115.313 19.4549 115.313 18.8605C115.313 17.0774 128.684 14.7 139.382 14.6009L149.089 14.5018L155.23 18.6624ZM104.913 27.4788C99.5639 43.5266 97.5829 70.1738 100.356 87.6085C101.941 97.2173 101.248 98.7032 95.6019 98.7032C90.3523 98.7032 88.2723 96.0286 84.6074 84.3395C81.3388 74.1362 75.693 61.8527 71.2358 55.4138C67.0757 49.2721 67.769 46.5974 74.9996 40.3566C85.0036 31.6393 103.823 20.4455 105.606 22.2286C106.002 22.6248 105.705 25.0023 104.913 27.4788ZM123.237 27.5778C133.538 33.8186 151.367 51.2533 158.498 62.1499C162.757 68.4898 163.451 70.1738 163.055 73.2447C162.658 76.5137 162.064 77.2071 155.032 81.2686C140.868 89.5897 128.883 94.5427 116.303 97.1183C110.459 98.307 109.667 98.307 107.29 96.623C105.111 95.038 104.516 93.6512 103.625 86.6179C102.04 75.6221 102.139 56.7016 103.823 45.6068C105.21 36.2951 108.082 25.8938 109.667 23.6154C111.351 21.4361 114.818 22.4267 123.237 27.5778ZM43.5019 30.7478C46.2753 32.6299 51.0297 36.4933 54.1993 39.4651C61.4299 46.3003 61.727 48.8758 55.586 56.4044C53.3078 59.1781 49.2468 65.0227 46.5725 69.2823C42.7095 75.2259 41.1247 76.9099 39.3419 76.9099C36.5685 76.9099 20.7206 61.4565 17.8481 55.9091L16.0652 52.3429L19.631 46.7956C23.9892 40.2576 35.7761 27.3797 37.4599 27.3797C38.0542 27.3797 40.8276 28.8656 43.5019 30.7478ZM71.5329 61.7537C76.2873 70.1738 79.8531 78.8911 82.9236 89.4906C84.2112 93.8493 84.2112 94.8399 83.0226 95.8305C79.0607 99.0995 46.7706 85.8254 45.3839 80.278C44.6905 77.7024 47.3648 72.4522 54.1993 63.0415C63.609 49.9655 64.7975 49.9655 71.5329 61.7537ZM18.7396 62.0509C20.7206 64.7255 25.3759 69.7776 29.0407 73.1456C37.7571 81.1695 38.1533 82.8536 33.597 93.8493C31.715 98.4061 30.1303 102.666 30.1303 103.26C30.1303 103.953 29.4369 104.746 28.6445 105.043C26.5645 105.836 3.38691 90.2831 3.38691 88.2028C3.38691 81.962 12.1033 57.0978 14.2823 57.0978C14.7776 57.0978 16.7586 59.2772 18.7396 62.0509ZM190.59 60.7631C196.335 73.3438 199.505 88.9953 199.406 105.043C199.406 122.478 198.91 124.459 194.255 126.044C189.699 127.629 186.628 126.539 186.628 123.171C186.628 117.624 178.308 91.8681 173.653 82.6554C170.582 76.7118 171.573 74.0372 179.893 65.7161C183.855 61.6546 187.619 58.3856 188.213 58.2866C188.807 58.1875 189.897 59.2772 190.59 60.7631ZM173.851 90.7784C178.506 102.468 183.657 120.298 183.657 124.558C183.558 128.421 181.379 130.304 170.979 135.455C160.578 140.507 148.296 149.125 141.561 156.059C139.481 158.338 137.203 160.121 136.509 160.121C135.321 160.121 130.071 153.385 125.02 145.658C118.879 136.148 110.558 117.624 108.28 108.213C107.191 103.854 107.29 103.26 108.875 102.071C109.964 101.279 111.945 100.684 113.332 100.684C121.355 100.684 148.494 89.7878 159.885 81.962C167.413 76.8109 168.502 77.5043 173.851 90.7784ZM50.6335 88.5991C58.2603 92.8587 65.4909 95.8305 74.2072 98.307C82.1312 100.486 85.697 104.052 86.6875 110.888C88.2723 122.181 86.8856 154.97 84.6074 157.446C84.2112 157.842 82.0321 155.762 79.754 152.79C74.0091 145.46 54.2983 126.341 43.8981 118.317C32.2103 109.204 31.616 107.321 36.5685 95.038C38.7476 89.4906 40.8276 85.7263 41.8181 85.5282C42.7095 85.231 43.601 85.0329 43.7 84.9338C43.7 84.9338 46.8696 86.5188 50.6335 88.5991ZM14.3814 100.883C27.0597 109.501 27.3569 110.194 24.2863 123.567C21.513 135.554 20.2253 146.946 20.2253 160.616C20.2253 172.404 20.1263 172.503 18.3434 170.126C15.1738 166.064 7.24984 146.153 5.26885 137.337C3.18881 128.421 1.30688 93.7502 2.89167 93.7502C3.38691 93.7502 8.53748 97.0192 14.3814 100.883ZM101.644 103.953C103.328 105.34 104.913 108.411 106.2 112.572C110.261 125.846 120.76 146.648 128.486 156.555C132.745 162.003 132.745 165.47 128.189 172.008C122.642 180.032 111.351 203.113 111.351 206.283C111.351 209.552 109.667 207.075 106.993 199.943C103.526 190.73 97.3848 178.15 93.3238 171.711C91.5409 168.838 90.5504 166.262 90.8475 165.074C91.1447 163.984 90.5504 162.102 89.6589 161.012C88.0742 159.031 88.0742 158.239 89.3618 150.314C90.3523 144.271 90.6494 136.148 90.3523 122.28C90.0551 111.482 90.0551 102.468 90.3523 102.17C91.838 100.784 99.1677 101.873 101.644 103.953ZM41.62 120.695C55.2888 131.591 66.0852 141.695 73.811 150.908C83.9141 162.795 84.4093 166.956 77.674 186.372C74.0091 196.674 70.6415 204.995 66.6795 212.821C63.3118 219.458 62.4204 220.548 60.2413 220.548C54.1993 220.548 49.9401 216.09 32.2103 191.325L22.9987 178.447L23.4939 159.13C23.8901 143.578 24.5835 137.436 26.6635 127.431C28.9417 116.534 30.1303 113.661 32.2103 113.562C32.5074 113.562 36.7666 116.732 41.62 120.695ZM196.533 131.294C196.533 133.969 191.68 149.026 190.689 149.62C189.402 150.512 188.708 136.346 189.996 133.969C192.076 130.006 192.67 129.412 194.651 129.412C195.84 129.412 196.533 130.105 196.533 131.294ZM184.548 135.752C185.242 136.544 186.034 141.993 186.331 147.936C186.925 158.536 186.826 158.734 183.657 165.074C179.497 173.395 168.799 190.829 167.908 190.829C166.818 190.829 153.942 180.131 147.306 173.593C142.254 168.739 141.066 166.956 141.066 164.479C141.066 158.932 157.31 145.262 172.96 137.832C180.883 133.969 182.864 133.672 184.548 135.752ZM92.2342 176.664C101.248 192.414 106.795 206.679 105.903 211.335C105.606 213.118 105.804 215.396 106.299 216.387C106.993 217.774 106.695 220.349 105.21 225.897C103.427 232.633 102.932 233.425 100.752 233.425C99.4648 233.425 91.4418 231.543 83.0226 229.265C66.2833 224.807 64.7975 223.916 67.4719 218.963C73.4148 207.67 80.5464 189.244 84.1122 176.466C86.0932 169.036 86.3903 168.046 86.9846 168.046C87.1827 168.046 89.5599 171.909 92.2342 176.664ZM148.395 178.645C153.942 183.994 160.083 189.443 162.163 190.829C164.144 192.216 165.828 193.801 165.828 194.396C165.828 195.485 161.668 201.825 150.178 218.566C138.589 235.308 135.123 239.864 133.043 240.558C129.576 241.846 123.237 240.36 121.553 237.784C120.76 236.496 119.275 235.209 118.284 234.911C115.511 234.02 112.737 220.746 114.421 216.189C115.412 213.514 115.412 212.425 114.421 211.335C111.351 207.571 131.161 169.036 136.212 169.036C137.599 169.036 142.056 172.602 148.395 178.645ZM111.648 227.779C111.945 230.057 112.539 232.831 112.936 233.723C113.827 236.1 110.756 236.992 108.478 235.01C106.795 233.525 106.795 233.029 108.181 227.977C108.974 225.005 109.964 222.826 110.36 223.024C110.756 223.222 111.351 225.402 111.648 227.779ZM75.2968 232.237C79.1597 233.921 85.697 236.1 89.6589 237.289C99.762 240.162 101.743 242.935 99.5639 251.256C99.0686 253.138 98.3753 256.804 97.9791 259.379L97.3848 264.134L92.7295 264.035C88.8666 264.035 87.678 263.54 85.9941 261.361C84.9046 259.875 78.9616 252.346 72.9196 244.619C63.3118 232.237 62.1232 230.355 63.609 229.463C65.5899 228.274 66.1842 228.373 75.2968 232.237ZM112.638 244.52C114.322 246.204 115.214 248.384 115.709 252.247C116.105 255.219 116.6 259.181 116.997 260.964L117.492 264.233L109.271 263.936C99.762 263.639 100.257 264.63 103.031 251.653C104.219 246.204 105.111 244.322 106.695 243.53C109.766 242.044 109.964 242.044 112.638 244.52ZM131.062 244.916C131.26 245.115 129.081 248.185 126.208 251.752C123.336 255.318 120.76 258.092 120.463 257.794C120.166 257.497 119.572 254.922 119.176 252.049C118.086 245.016 119.671 243.133 126.109 244.025C128.585 244.322 130.864 244.718 131.062 244.916Z" fill="url(#paint0_linear_105_261)"/>
<path d="M98.8706 278.003C96.1963 279.092 93.522 282.758 93.522 285.432C93.522 286.522 94.2153 288.602 94.9087 290.088C96.2954 292.664 96.1963 292.862 94.4134 292.862C93.3239 292.862 91.4419 293.951 90.1543 295.239C88.3714 297.319 86.8857 297.716 81.537 298.013L75.1978 298.31L74.9007 312.278C74.6035 326.146 74.7026 326.146 77.2779 328.623L79.8532 331H102.635H125.416L127.793 328.226C130.17 325.453 130.17 324.957 129.972 311.881L129.675 298.31L122.543 298.013C116.303 297.716 115.313 297.419 113.926 295.338C113.035 293.951 111.351 292.862 110.261 292.862C108.677 292.862 108.379 292.465 108.875 291.079C109.37 290.187 109.865 288.008 110.063 286.324C110.856 280.776 104.12 275.724 98.8706 278.003ZM105.804 281.569C107.785 283.55 107.785 288.305 105.804 290.286C102.535 293.654 96.4935 290.98 96.4935 286.126C96.4935 280.974 102.337 278.102 105.804 281.569Z" fill="url(#paint1_linear_105_261)"/>
<defs>
<linearGradient id="paint0_linear_105_261" x1="100.941" y1="0" x2="100.941" y2="267.106" gradientUnits="userSpaceOnUse">
<stop offset="0.082699" stop-color="#B156D6"/>
<stop offset="0.492699" stop-color="#431D6F"/>
<stop offset="0.837699" stop-color="#2B0D4D"/>
</linearGradient>
<linearGradient id="paint1_linear_105_261" x1="102.417" y1="277.443" x2="102.417" y2="331" gradientUnits="userSpaceOnUse">
<stop offset="0.082699" stop-color="#B156D6"/>
<stop offset="0.492699" stop-color="#431D6F"/>
<stop offset="0.837699" stop-color="#2B0D4D"/>
</linearGradient>
</defs>
</svg>
