<svg width="32" height="30" viewBox="0 0 32 30" fill="none" xmlns="http://www.w3.org/2000/svg">
<path d="M15.6863 14.5859C13.5294 14.5859 11.7647 13.9137 10.3922 12.5691C9.01961 11.2246 8.33333 9.4959 8.33333 7.38306C8.33333 5.27021 9.01961 3.54152 10.3922 2.19698C11.7647 0.852445 13.5294 0.180176 15.6863 0.180176C17.8431 0.180176 19.6078 0.852445 20.9804 2.19698C22.3529 3.54152 23.0392 5.27021 23.0392 7.38306C23.0392 9.4959 22.3529 11.2246 20.9804 12.5691C19.6078 13.9137 17.8431 14.5859 15.6863 14.5859ZM2.94118 30.0001C2.12418 30.0001 1.42974 29.72 0.857843 29.1598C0.285948 28.5995 0 27.9193 0 27.1189V25.4863C0 24.2698 0.310457 23.2294 0.931373 22.365C1.55229 21.5007 2.35294 20.8444 3.33333 20.3963C5.52288 19.4359 7.62255 18.7156 9.63235 18.2354C11.6422 17.7552 13.6601 17.5151 15.6863 17.5151C17.7124 17.5151 19.7222 17.7632 21.7157 18.2594C23.7091 18.7556 25.8007 19.4679 27.9902 20.3963C29.0033 20.8444 29.8203 21.5007 30.4412 22.365C31.0621 23.2294 31.3725 24.2698 31.3725 25.4863V27.1189C31.3725 27.9193 31.0866 28.5995 30.5147 29.1598C29.9428 29.72 29.2484 30.0001 28.4314 30.0001H2.94118Z" fill="white"/>
</svg>
