<svg width="464" height="284" viewBox="0 0 464 284" fill="none" xmlns="http://www.w3.org/2000/svg">
<g filter="url(#filter0_d_60_6)">
<path d="M33.7842 222.94H261.578L291.914 275.89H4L33.7842 222.94Z" fill="url(#paint0_linear_60_6)"/>
</g>
<g filter="url(#filter1_d_60_6)">
<path d="M71.509 146.825H224.072L254.408 199.775H40.4029L71.509 146.825Z" fill="url(#paint1_linear_60_6)"/>
</g>
<g filter="url(#filter2_d_60_6)">
<path d="M109.899 70.71H186.014L215.799 123.66H79.5636L109.899 70.71Z" fill="url(#paint2_linear_60_6)"/>
</g>
<path d="M115.415 53.0598H163.952L184.911 70.7097H131.962L115.415 53.0598Z" fill="#3D1863"/>
<path d="M79.5636 123.66H168.365L222.417 146.825H129.755L79.5636 123.66Z" fill="#3D1863"/>
<path d="M40.4029 199.775H171.674L254.959 222.94H129.204L40.4029 199.775Z" fill="#3D1863"/>
<g filter="url(#filter3_d_60_6)">
<path d="M144.647 0.110352L174.74 53.06H114.555L144.647 0.110352Z" fill="url(#paint3_linear_60_6)"/>
</g>
<path d="M205.692 29.9056V27.8416H209.548V39.5056H207.244V29.9056H205.692ZM213.009 39.6176C212.604 39.6176 212.268 39.4949 212.001 39.2496C211.745 38.9936 211.617 38.6789 211.617 38.3056C211.617 37.9323 211.745 37.6229 212.001 37.3776C212.268 37.1216 212.604 36.9936 213.009 36.9936C213.404 36.9936 213.729 37.1216 213.985 37.3776C214.241 37.6229 214.369 37.9323 214.369 38.3056C214.369 38.6789 214.241 38.9936 213.985 39.2496C213.729 39.4949 213.404 39.6176 213.009 39.6176ZM223.89 28.3376C225.063 28.3376 226.093 28.5669 226.978 29.0256C227.874 29.4843 228.562 30.1403 229.042 30.9936C229.533 31.8363 229.778 32.8176 229.778 33.9376C229.778 35.0576 229.533 36.0389 229.042 36.8816C228.562 37.7136 227.874 38.3589 226.978 38.8176C226.093 39.2763 225.063 39.5056 223.89 39.5056H219.986V28.3376H223.89ZM223.81 37.6016C224.983 37.6016 225.89 37.2816 226.53 36.6416C227.17 36.0016 227.49 35.1003 227.49 33.9376C227.49 32.7749 227.17 31.8683 226.53 31.2176C225.89 30.5563 224.983 30.2256 223.81 30.2256H222.226V37.6016H223.81ZM239.695 34.8816C239.695 35.2016 239.673 35.4896 239.631 35.7456H233.151C233.204 36.3856 233.428 36.8869 233.823 37.2496C234.217 37.6123 234.703 37.7936 235.279 37.7936C236.111 37.7936 236.703 37.4363 237.055 36.7216H239.471C239.215 37.5749 238.724 38.2789 237.999 38.8336C237.273 39.3776 236.383 39.6496 235.327 39.6496C234.473 39.6496 233.705 39.4629 233.023 39.0896C232.351 38.7056 231.823 38.1669 231.439 37.4736C231.065 36.7803 230.879 35.9803 230.879 35.0736C230.879 34.1563 231.065 33.3509 231.439 32.6576C231.812 31.9643 232.335 31.4309 233.007 31.0576C233.679 30.6843 234.452 30.4976 235.327 30.4976C236.169 30.4976 236.921 30.6789 237.583 31.0416C238.255 31.4043 238.772 31.9216 239.135 32.5936C239.508 33.2549 239.695 34.0176 239.695 34.8816ZM237.375 34.2416C237.364 33.6656 237.156 33.2069 236.751 32.8656C236.345 32.5136 235.849 32.3376 235.263 32.3376C234.708 32.3376 234.239 32.5083 233.855 32.8496C233.481 33.1803 233.252 33.6443 233.167 34.2416H237.375ZM252.338 30.5136C253.426 30.5136 254.3 30.8496 254.962 31.5216C255.634 32.1829 255.97 33.1109 255.97 34.3056V39.5056H253.73V34.6096C253.73 33.9163 253.554 33.3883 253.202 33.0256C252.85 32.6523 252.37 32.4656 251.762 32.4656C251.154 32.4656 250.668 32.6523 250.306 33.0256C249.954 33.3883 249.778 33.9163 249.778 34.6096V39.5056H247.538V34.6096C247.538 33.9163 247.362 33.3883 247.01 33.0256C246.658 32.6523 246.178 32.4656 245.57 32.4656C244.951 32.4656 244.46 32.6523 244.098 33.0256C243.746 33.3883 243.57 33.9163 243.57 34.6096V39.5056H241.33V30.6416H243.57V31.7136C243.858 31.3403 244.226 31.0469 244.674 30.8336C245.132 30.6203 245.634 30.5136 246.178 30.5136C246.871 30.5136 247.49 30.6629 248.034 30.9616C248.578 31.2496 248.999 31.6656 249.298 32.2096C249.586 31.6976 250.002 31.2869 250.546 30.9776C251.1 30.6683 251.698 30.5136 252.338 30.5136ZM262.031 39.6496C261.178 39.6496 260.41 39.4629 259.727 39.0896C259.045 38.7056 258.506 38.1669 258.111 37.4736C257.727 36.7803 257.535 35.9803 257.535 35.0736C257.535 34.1669 257.733 33.3669 258.127 32.6736C258.533 31.9803 259.082 31.4469 259.775 31.0736C260.469 30.6896 261.242 30.4976 262.095 30.4976C262.949 30.4976 263.722 30.6896 264.415 31.0736C265.109 31.4469 265.653 31.9803 266.047 32.6736C266.453 33.3669 266.655 34.1669 266.655 35.0736C266.655 35.9803 266.447 36.7803 266.031 37.4736C265.626 38.1669 265.071 38.7056 264.367 39.0896C263.674 39.4629 262.895 39.6496 262.031 39.6496ZM262.031 37.6976C262.437 37.6976 262.815 37.6016 263.167 37.4096C263.53 37.2069 263.818 36.9083 264.031 36.5136C264.245 36.1189 264.351 35.6389 264.351 35.0736C264.351 34.2309 264.127 33.5856 263.679 33.1376C263.242 32.6789 262.703 32.4496 262.063 32.4496C261.423 32.4496 260.885 32.6789 260.447 33.1376C260.021 33.5856 259.807 34.2309 259.807 35.0736C259.807 35.9163 260.015 36.5669 260.431 37.0256C260.858 37.4736 261.391 37.6976 262.031 37.6976ZM267.722 35.0736C267.722 34.1563 267.909 33.3563 268.282 32.6736C268.656 31.9803 269.173 31.4469 269.834 31.0736C270.496 30.6896 271.253 30.4976 272.106 30.4976C273.205 30.4976 274.112 30.7749 274.826 31.3296C275.552 31.8736 276.037 32.6416 276.282 33.6336H273.866C273.738 33.2496 273.52 32.9509 273.21 32.7376C272.912 32.5136 272.538 32.4016 272.09 32.4016C271.45 32.4016 270.944 32.6363 270.57 33.1056C270.197 33.5643 270.01 34.2203 270.01 35.0736C270.01 35.9163 270.197 36.5723 270.57 37.0416C270.944 37.5003 271.45 37.7296 272.09 37.7296C272.997 37.7296 273.589 37.3243 273.866 36.5136H276.282C276.037 37.4736 275.552 38.2363 274.826 38.8016C274.101 39.3669 273.194 39.6496 272.106 39.6496C271.253 39.6496 270.496 39.4629 269.834 39.0896C269.173 38.7056 268.656 38.1723 268.282 37.4896C267.909 36.7963 267.722 35.9909 267.722 35.0736ZM280.163 32.0176C280.451 31.5483 280.825 31.1803 281.283 30.9136C281.753 30.6469 282.286 30.5136 282.883 30.5136V32.8656H282.291C281.587 32.8656 281.054 33.0309 280.691 33.3616C280.339 33.6923 280.163 34.2683 280.163 35.0896V39.5056H277.923V30.6416H280.163V32.0176ZM283.816 35.0416C283.816 34.1456 283.992 33.3509 284.344 32.6576C284.707 31.9643 285.192 31.4309 285.8 31.0576C286.419 30.6843 287.107 30.4976 287.864 30.4976C288.525 30.4976 289.101 30.6309 289.592 30.8976C290.093 31.1643 290.493 31.5003 290.792 31.9056V30.6416H293.048V39.5056H290.792V38.2096C290.504 38.6256 290.104 38.9723 289.592 39.2496C289.091 39.5163 288.509 39.6496 287.848 39.6496C287.101 39.6496 286.419 39.4576 285.8 39.0736C285.192 38.6896 284.707 38.1509 284.344 37.4576C283.992 36.7536 283.816 35.9483 283.816 35.0416ZM290.792 35.0736C290.792 34.5296 290.685 34.0656 290.472 33.6816C290.259 33.2869 289.971 32.9883 289.608 32.7856C289.245 32.5723 288.856 32.4656 288.44 32.4656C288.024 32.4656 287.64 32.5669 287.288 32.7696C286.936 32.9723 286.648 33.2709 286.424 33.6656C286.211 34.0496 286.104 34.5083 286.104 35.0416C286.104 35.5749 286.211 36.0443 286.424 36.4496C286.648 36.8443 286.936 37.1483 287.288 37.3616C287.651 37.5749 288.035 37.6816 288.44 37.6816C288.856 37.6816 289.245 37.5803 289.608 37.3776C289.971 37.1643 290.259 36.8656 290.472 36.4816C290.685 36.0869 290.792 35.6176 290.792 35.0736ZM297.844 32.4816V36.7696C297.844 37.0683 297.913 37.2869 298.052 37.4256C298.201 37.5536 298.447 37.6176 298.788 37.6176H299.828V39.5056H298.42C296.532 39.5056 295.588 38.5883 295.588 36.7536V32.4816H294.532V30.6416H295.588V28.4496H297.844V30.6416H299.828V32.4816H297.844ZM302.575 29.5856C302.18 29.5856 301.85 29.4629 301.583 29.2176C301.327 28.9616 301.199 28.6469 301.199 28.2736C301.199 27.9003 301.327 27.5909 301.583 27.3456C301.85 27.0896 302.18 26.9616 302.575 26.9616C302.97 26.9616 303.295 27.0896 303.551 27.3456C303.818 27.5909 303.951 27.9003 303.951 28.2736C303.951 28.6469 303.818 28.9616 303.551 29.2176C303.295 29.4629 302.97 29.5856 302.575 29.5856ZM303.679 30.6416V39.5056H301.439V30.6416H303.679ZM307.94 37.6656H311.892V39.5056H305.396V37.6976L309.268 32.4816H305.412V30.6416H311.844V32.4496L307.94 37.6656ZM313.051 35.0416C313.051 34.1456 313.227 33.3509 313.579 32.6576C313.941 31.9643 314.427 31.4309 315.035 31.0576C315.653 30.6843 316.341 30.4976 317.099 30.4976C317.76 30.4976 318.336 30.6309 318.827 30.8976C319.328 31.1643 319.728 31.5003 320.027 31.9056V30.6416H322.283V39.5056H320.027V38.2096C319.739 38.6256 319.339 38.9723 318.827 39.2496C318.325 39.5163 317.744 39.6496 317.083 39.6496C316.336 39.6496 315.653 39.4576 315.035 39.0736C314.427 38.6896 313.941 38.1509 313.579 37.4576C313.227 36.7536 313.051 35.9483 313.051 35.0416ZM320.027 35.0736C320.027 34.5296 319.92 34.0656 319.707 33.6816C319.493 33.2869 319.205 32.9883 318.843 32.7856C318.48 32.5723 318.091 32.4656 317.675 32.4656C317.259 32.4656 316.875 32.5669 316.523 32.7696C316.171 32.9723 315.883 33.2709 315.659 33.6656C315.445 34.0496 315.339 34.5083 315.339 35.0416C315.339 35.5749 315.445 36.0443 315.659 36.4496C315.883 36.8443 316.171 37.1483 316.523 37.3616C316.885 37.5749 317.269 37.6816 317.675 37.6816C318.091 37.6816 318.48 37.5803 318.843 37.3776C319.205 37.1643 319.493 36.8656 319.707 36.4816C319.92 36.0869 320.027 35.6176 320.027 35.0736ZM326.71 32.0176C326.998 31.5483 327.372 31.1803 327.83 30.9136C328.3 30.6469 328.833 30.5136 329.43 30.5136V32.8656H328.838C328.134 32.8656 327.601 33.0309 327.238 33.3616C326.886 33.6923 326.71 34.2683 326.71 35.0896V39.5056H324.47V30.6416H326.71V32.0176ZM334.176 35.0416C334.176 34.1456 334.352 33.3509 334.704 32.6576C335.066 31.9643 335.552 31.4309 336.16 31.0576C336.778 30.6843 337.466 30.4976 338.224 30.4976C338.885 30.4976 339.461 30.6309 339.952 30.8976C340.453 31.1643 340.853 31.5003 341.152 31.9056V30.6416H343.408V39.5056H341.152V38.2096C340.864 38.6256 340.464 38.9723 339.952 39.2496C339.45 39.5163 338.869 39.6496 338.208 39.6496C337.461 39.6496 336.778 39.4576 336.16 39.0736C335.552 38.6896 335.066 38.1509 334.704 37.4576C334.352 36.7536 334.176 35.9483 334.176 35.0416ZM341.152 35.0736C341.152 34.5296 341.045 34.0656 340.832 33.6816C340.618 33.2869 340.33 32.9883 339.968 32.7856C339.605 32.5723 339.216 32.4656 338.8 32.4656C338.384 32.4656 338 32.5669 337.648 32.7696C337.296 32.9723 337.008 33.2709 336.784 33.6656C336.57 34.0496 336.464 34.5083 336.464 35.0416C336.464 35.5749 336.57 36.0443 336.784 36.4496C337.008 36.8443 337.296 37.1483 337.648 37.3616C338.01 37.5749 338.394 37.6816 338.8 37.6816C339.216 37.6816 339.605 37.5803 339.968 37.3776C340.33 37.1643 340.618 36.8656 340.832 36.4816C341.045 36.0869 341.152 35.6176 341.152 35.0736ZM350.544 29.5856C350.149 29.5856 349.818 29.4629 349.552 29.2176C349.296 28.9616 349.168 28.6469 349.168 28.2736C349.168 27.9003 349.296 27.5909 349.552 27.3456C349.818 27.0896 350.149 26.9616 350.544 26.9616C350.938 26.9616 351.264 27.0896 351.52 27.3456C351.786 27.5909 351.92 27.9003 351.92 28.2736C351.92 28.6469 351.786 28.9616 351.52 29.2176C351.264 29.4629 350.938 29.5856 350.544 29.5856ZM351.648 30.6416V39.5056H349.408V30.6416H351.648ZM358.773 30.5136C359.829 30.5136 360.682 30.8496 361.333 31.5216C361.984 32.1829 362.309 33.1109 362.309 34.3056V39.5056H360.069V34.6096C360.069 33.9056 359.893 33.3669 359.541 32.9936C359.189 32.6096 358.709 32.4176 358.101 32.4176C357.482 32.4176 356.992 32.6096 356.629 32.9936C356.277 33.3669 356.101 33.9056 356.101 34.6096V39.5056H353.861V30.6416H356.101V31.7456C356.4 31.3616 356.778 31.0629 357.237 30.8496C357.706 30.6256 358.218 30.5136 358.773 30.5136ZM368.503 32.4816H366.951V39.5056H364.679V32.4816H363.671V30.6416H364.679V30.1936C364.679 29.1056 364.988 28.3056 365.607 27.7936C366.226 27.2816 367.159 27.0416 368.407 27.0736V28.9616C367.863 28.9509 367.484 29.0416 367.271 29.2336C367.058 29.4256 366.951 29.7723 366.951 30.2736V30.6416H368.503V32.4816ZM373.891 39.6496C373.037 39.6496 372.269 39.4629 371.587 39.0896C370.904 38.7056 370.365 38.1669 369.971 37.4736C369.587 36.7803 369.395 35.9803 369.395 35.0736C369.395 34.1669 369.592 33.3669 369.987 32.6736C370.392 31.9803 370.941 31.4469 371.635 31.0736C372.328 30.6896 373.101 30.4976 373.955 30.4976C374.808 30.4976 375.581 30.6896 376.275 31.0736C376.968 31.4469 377.512 31.9803 377.907 32.6736C378.312 33.3669 378.515 34.1669 378.515 35.0736C378.515 35.9803 378.307 36.7803 377.891 37.4736C377.485 38.1669 376.931 38.7056 376.227 39.0896C375.533 39.4629 374.755 39.6496 373.891 39.6496ZM373.891 37.6976C374.296 37.6976 374.675 37.6016 375.027 37.4096C375.389 37.2069 375.677 36.9083 375.891 36.5136C376.104 36.1189 376.211 35.6389 376.211 35.0736C376.211 34.2309 375.987 33.5856 375.539 33.1376C375.101 32.6789 374.563 32.4496 373.923 32.4496C373.283 32.4496 372.744 32.6789 372.307 33.1376C371.88 33.5856 371.667 34.2309 371.667 35.0736C371.667 35.9163 371.875 36.5669 372.291 37.0256C372.717 37.4736 373.251 37.6976 373.891 37.6976ZM382.398 32.0176C382.686 31.5483 383.059 31.1803 383.518 30.9136C383.987 30.6469 384.52 30.5136 385.118 30.5136V32.8656H384.526C383.822 32.8656 383.288 33.0309 382.926 33.3616C382.574 33.6923 382.398 34.2683 382.398 35.0896V39.5056H380.158V30.6416H382.398V32.0176ZM397.635 30.5136C398.723 30.5136 399.597 30.8496 400.259 31.5216C400.931 32.1829 401.267 33.1109 401.267 34.3056V39.5056H399.027V34.6096C399.027 33.9163 398.851 33.3883 398.499 33.0256C398.147 32.6523 397.667 32.4656 397.059 32.4656C396.451 32.4656 395.965 32.6523 395.603 33.0256C395.251 33.3883 395.075 33.9163 395.075 34.6096V39.5056H392.835V34.6096C392.835 33.9163 392.659 33.3883 392.307 33.0256C391.955 32.6523 391.475 32.4656 390.867 32.4656C390.248 32.4656 389.757 32.6523 389.395 33.0256C389.043 33.3883 388.867 33.9163 388.867 34.6096V39.5056H386.627V30.6416H388.867V31.7136C389.155 31.3403 389.523 31.0469 389.971 30.8336C390.429 30.6203 390.931 30.5136 391.475 30.5136C392.168 30.5136 392.787 30.6629 393.331 30.9616C393.875 31.2496 394.296 31.6656 394.595 32.2096C394.883 31.6976 395.299 31.2869 395.843 30.9776C396.397 30.6683 396.995 30.5136 397.635 30.5136ZM402.816 35.0416C402.816 34.1456 402.992 33.3509 403.344 32.6576C403.707 31.9643 404.192 31.4309 404.8 31.0576C405.419 30.6843 406.107 30.4976 406.864 30.4976C407.525 30.4976 408.101 30.6309 408.592 30.8976C409.093 31.1643 409.493 31.5003 409.792 31.9056V30.6416H412.048V39.5056H409.792V38.2096C409.504 38.6256 409.104 38.9723 408.592 39.2496C408.091 39.5163 407.509 39.6496 406.848 39.6496C406.101 39.6496 405.419 39.4576 404.8 39.0736C404.192 38.6896 403.707 38.1509 403.344 37.4576C402.992 36.7536 402.816 35.9483 402.816 35.0416ZM409.792 35.0736C409.792 34.5296 409.685 34.0656 409.472 33.6816C409.259 33.2869 408.971 32.9883 408.608 32.7856C408.245 32.5723 407.856 32.4656 407.44 32.4656C407.024 32.4656 406.64 32.5669 406.288 32.7696C405.936 32.9723 405.648 33.2709 405.424 33.6656C405.211 34.0496 405.104 34.5083 405.104 35.0416C405.104 35.5749 405.211 36.0443 405.424 36.4496C405.648 36.8443 405.936 37.1483 406.288 37.3616C406.651 37.5749 407.035 37.6816 407.44 37.6816C407.856 37.6816 408.245 37.5803 408.608 37.3776C408.971 37.1643 409.259 36.8656 409.472 36.4816C409.685 36.0869 409.792 35.6176 409.792 35.0736ZM418.028 37.7296C418.935 37.7296 419.527 37.3243 419.804 36.5136H422.22C421.996 37.3776 421.58 38.0816 420.972 38.6256C420.375 39.1696 419.623 39.4949 418.716 39.6016V40.2256C419.303 40.2256 419.793 40.3749 420.188 40.6736C420.593 40.9723 420.796 41.4043 420.796 41.9696C420.796 42.5456 420.588 42.9883 420.172 43.2976C419.767 43.6069 419.265 43.7616 418.668 43.7616H416.396V42.4496H418.3C418.556 42.4496 418.748 42.4123 418.876 42.3376C419.015 42.2629 419.084 42.1296 419.084 41.9376C419.084 41.7456 419.015 41.6123 418.876 41.5376C418.748 41.4736 418.556 41.4416 418.3 41.4416H417.308V39.6016C416.583 39.4949 415.943 39.2443 415.388 38.8496C414.844 38.4443 414.417 37.9216 414.108 37.2816C413.809 36.6309 413.66 35.8949 413.66 35.0736C413.66 34.1563 413.847 33.3563 414.22 32.6736C414.593 31.9803 415.111 31.4469 415.772 31.0736C416.433 30.6896 417.191 30.4976 418.044 30.4976C419.143 30.4976 420.049 30.7749 420.764 31.3296C421.489 31.8736 421.975 32.6416 422.22 33.6336H419.804C419.676 33.2496 419.457 32.9509 419.148 32.7376C418.849 32.5136 418.476 32.4016 418.028 32.4016C417.388 32.4016 416.881 32.6363 416.508 33.1056C416.135 33.5643 415.948 34.2203 415.948 35.0736C415.948 35.9163 416.135 36.5723 416.508 37.0416C416.881 37.5003 417.388 37.7296 418.028 37.7296ZM423.285 35.0416C423.285 34.1456 423.461 33.3509 423.813 32.6576C424.176 31.9643 424.661 31.4309 425.269 31.0576C425.888 30.6843 426.576 30.4976 427.333 30.4976C427.994 30.4976 428.57 30.6309 429.061 30.8976C429.562 31.1643 429.962 31.5003 430.261 31.9056V30.6416H432.517V39.5056H430.261V38.2096C429.973 38.6256 429.573 38.9723 429.061 39.2496C428.56 39.5163 427.978 39.6496 427.317 39.6496C426.57 39.6496 425.888 39.4576 425.269 39.0736C424.661 38.6896 424.176 38.1509 423.813 37.4576C423.461 36.7536 423.285 35.9483 423.285 35.0416ZM430.261 35.0736C430.261 34.5296 430.154 34.0656 429.941 33.6816C429.728 33.2869 429.44 32.9883 429.077 32.7856C428.714 32.5723 428.325 32.4656 427.909 32.4656C427.493 32.4656 427.109 32.5669 426.757 32.7696C426.405 32.9723 426.117 33.2709 425.893 33.6656C425.68 34.0496 425.573 34.5083 425.573 35.0416C425.573 35.5749 425.68 36.0443 425.893 36.4496C426.117 36.8443 426.405 37.1483 426.757 37.3616C427.12 37.5749 427.504 37.6816 427.909 37.6816C428.325 37.6816 428.714 37.5803 429.077 37.3776C429.44 37.1643 429.728 36.8656 429.941 36.4816C430.154 36.0869 430.261 35.6176 430.261 35.0736ZM425.333 29.7936C425.429 29.0896 425.648 28.5669 425.989 28.2256C426.341 27.8736 426.784 27.6976 427.317 27.6976C427.541 27.6976 427.738 27.7349 427.909 27.8096C428.08 27.8736 428.272 27.9696 428.485 28.0976C428.805 28.3003 429.072 28.4016 429.285 28.4016C429.68 28.4016 429.909 28.1723 429.973 27.7136H431.173C431.077 28.4176 430.853 28.9456 430.501 29.2976C430.16 29.6389 429.722 29.8096 429.189 29.8096C428.965 29.8096 428.768 29.7776 428.597 29.7136C428.426 29.6389 428.234 29.5376 428.021 29.4096C427.712 29.1963 427.445 29.0896 427.221 29.0896C426.826 29.0896 426.592 29.3243 426.517 29.7936H425.333ZM438.641 39.6496C437.787 39.6496 437.019 39.4629 436.337 39.0896C435.654 38.7056 435.115 38.1669 434.721 37.4736C434.337 36.7803 434.145 35.9803 434.145 35.0736C434.145 34.1669 434.342 33.3669 434.737 32.6736C435.142 31.9803 435.691 31.4469 436.385 31.0736C437.078 30.6896 437.851 30.4976 438.705 30.4976C439.558 30.4976 440.331 30.6896 441.025 31.0736C441.718 31.4469 442.262 31.9803 442.657 32.6736C443.062 33.3669 443.265 34.1669 443.265 35.0736C443.265 35.9803 443.057 36.7803 442.641 37.4736C442.235 38.1669 441.681 38.7056 440.977 39.0896C440.283 39.4629 439.505 39.6496 438.641 39.6496ZM438.641 37.6976C439.046 37.6976 439.425 37.6016 439.777 37.4096C440.139 37.2069 440.427 36.9083 440.641 36.5136C440.854 36.1189 440.961 35.6389 440.961 35.0736C440.961 34.2309 440.737 33.5856 440.289 33.1376C439.851 32.6789 439.313 32.4496 438.673 32.4496C438.033 32.4496 437.494 32.6789 437.057 33.1376C436.63 33.5856 436.417 34.2309 436.417 35.0736C436.417 35.9163 436.625 36.5669 437.041 37.0256C437.467 37.4736 438.001 37.6976 438.641 37.6976Z" fill="#191919"/>
<path d="M237.692 106.513C238.716 105.659 239.532 104.95 240.14 104.385C240.748 103.809 241.254 103.211 241.66 102.593C242.065 101.974 242.268 101.366 242.268 100.769C242.268 100.225 242.14 99.7979 241.884 99.4885C241.628 99.1792 241.233 99.0245 240.7 99.0245C240.166 99.0245 239.756 99.2059 239.468 99.5685C239.18 99.9205 239.03 100.406 239.02 101.025H236.844C236.886 99.7445 237.265 98.7739 237.98 98.1125C238.705 97.4512 239.622 97.1205 240.732 97.1205C241.948 97.1205 242.881 97.4459 243.532 98.0965C244.182 98.7365 244.508 99.5845 244.508 100.641C244.508 101.473 244.284 102.267 243.836 103.025C243.388 103.782 242.876 104.443 242.3 105.009C241.724 105.563 240.972 106.235 240.044 107.025H244.764V108.881H236.86V107.217L237.692 106.513ZM247.423 109.153C247.018 109.153 246.682 109.03 246.415 108.785C246.159 108.529 246.031 108.214 246.031 107.841C246.031 107.467 246.159 107.158 246.415 106.913C246.682 106.657 247.018 106.529 247.423 106.529C247.818 106.529 248.143 106.657 248.399 106.913C248.655 107.158 248.783 107.467 248.783 107.841C248.783 108.214 248.655 108.529 248.399 108.785C248.143 109.03 247.818 109.153 247.423 109.153ZM258.304 97.8725C259.477 97.8725 260.506 98.1019 261.392 98.5605C262.288 99.0192 262.976 99.6752 263.456 100.529C263.946 101.371 264.192 102.353 264.192 103.473C264.192 104.593 263.946 105.574 263.456 106.417C262.976 107.249 262.288 107.894 261.392 108.353C260.506 108.811 259.477 109.041 258.304 109.041H254.4V97.8725H258.304ZM258.224 107.137C259.397 107.137 260.304 106.817 260.944 106.177C261.584 105.537 261.904 104.635 261.904 103.473C261.904 102.31 261.584 101.403 260.944 100.753C260.304 100.091 259.397 99.7605 258.224 99.7605H256.64V107.137H258.224ZM274.109 104.417C274.109 104.737 274.087 105.025 274.045 105.281H267.565C267.618 105.921 267.842 106.422 268.237 106.785C268.631 107.147 269.117 107.329 269.693 107.329C270.525 107.329 271.117 106.971 271.469 106.257H273.885C273.629 107.11 273.138 107.814 272.413 108.369C271.687 108.913 270.797 109.185 269.741 109.185C268.887 109.185 268.119 108.998 267.437 108.625C266.765 108.241 266.237 107.702 265.853 107.009C265.479 106.315 265.293 105.515 265.293 104.609C265.293 103.691 265.479 102.886 265.853 102.193C266.226 101.499 266.749 100.966 267.421 100.593C268.093 100.219 268.866 100.033 269.741 100.033C270.583 100.033 271.335 100.214 271.997 100.577C272.669 100.939 273.186 101.457 273.549 102.129C273.922 102.79 274.109 103.553 274.109 104.417ZM271.789 103.777C271.778 103.201 271.57 102.742 271.165 102.401C270.759 102.049 270.263 101.873 269.677 101.873C269.122 101.873 268.653 102.043 268.269 102.385C267.895 102.715 267.666 103.179 267.581 103.777H271.789ZM279.136 109.185C278.41 109.185 277.76 109.057 277.184 108.801C276.608 108.534 276.149 108.177 275.808 107.729C275.477 107.281 275.296 106.785 275.264 106.241H277.52C277.562 106.582 277.728 106.865 278.016 107.089C278.314 107.313 278.682 107.425 279.12 107.425C279.546 107.425 279.877 107.339 280.112 107.169C280.357 106.998 280.48 106.779 280.48 106.513C280.48 106.225 280.33 106.011 280.032 105.873C279.744 105.723 279.28 105.563 278.64 105.393C277.978 105.233 277.434 105.067 277.008 104.897C276.592 104.726 276.229 104.465 275.92 104.113C275.621 103.761 275.472 103.286 275.472 102.689C275.472 102.198 275.61 101.75 275.888 101.345C276.176 100.939 276.581 100.619 277.104 100.385C277.637 100.15 278.261 100.033 278.976 100.033C280.032 100.033 280.874 100.299 281.504 100.833C282.133 101.355 282.48 102.065 282.544 102.961H280.4C280.368 102.609 280.218 102.331 279.952 102.129C279.696 101.915 279.349 101.809 278.912 101.809C278.506 101.809 278.192 101.883 277.968 102.033C277.754 102.182 277.648 102.39 277.648 102.657C277.648 102.955 277.797 103.185 278.096 103.345C278.394 103.494 278.858 103.649 279.488 103.809C280.128 103.969 280.656 104.134 281.072 104.305C281.488 104.475 281.845 104.742 282.144 105.105C282.453 105.457 282.613 105.926 282.624 106.513C282.624 107.025 282.48 107.483 282.192 107.889C281.914 108.294 281.509 108.614 280.976 108.849C280.453 109.073 279.84 109.185 279.136 109.185ZM292.702 104.417C292.702 104.737 292.681 105.025 292.638 105.281H286.158C286.212 105.921 286.436 106.422 286.83 106.785C287.225 107.147 287.71 107.329 288.286 107.329C289.118 107.329 289.71 106.971 290.062 106.257H292.478C292.222 107.11 291.732 107.814 291.006 108.369C290.281 108.913 289.39 109.185 288.334 109.185C287.481 109.185 286.713 108.998 286.03 108.625C285.358 108.241 284.83 107.702 284.446 107.009C284.073 106.315 283.886 105.515 283.886 104.609C283.886 103.691 284.073 102.886 284.446 102.193C284.82 101.499 285.342 100.966 286.014 100.593C286.686 100.219 287.46 100.033 288.334 100.033C289.177 100.033 289.929 100.214 290.59 100.577C291.262 100.939 291.78 101.457 292.142 102.129C292.516 102.79 292.702 103.553 292.702 104.417ZM290.382 103.777C290.372 103.201 290.164 102.742 289.758 102.401C289.353 102.049 288.857 101.873 288.27 101.873C287.716 101.873 287.246 102.043 286.862 102.385C286.489 102.715 286.26 103.179 286.174 103.777H290.382ZM299.249 100.049C300.305 100.049 301.159 100.385 301.809 101.057C302.46 101.718 302.785 102.646 302.785 103.841V109.041H300.545V104.145C300.545 103.441 300.369 102.902 300.017 102.529C299.665 102.145 299.185 101.953 298.577 101.953C297.959 101.953 297.468 102.145 297.105 102.529C296.753 102.902 296.577 103.441 296.577 104.145V109.041H294.337V100.177H296.577V101.281C296.876 100.897 297.255 100.598 297.713 100.385C298.183 100.161 298.695 100.049 299.249 100.049ZM308.611 106.977L310.851 100.177H313.235L309.955 109.041H307.235L303.971 100.177H306.371L308.611 106.977ZM318.43 109.185C317.576 109.185 316.808 108.998 316.126 108.625C315.443 108.241 314.904 107.702 314.51 107.009C314.126 106.315 313.934 105.515 313.934 104.609C313.934 103.702 314.131 102.902 314.526 102.209C314.931 101.515 315.48 100.982 316.174 100.609C316.867 100.225 317.64 100.033 318.494 100.033C319.347 100.033 320.12 100.225 320.814 100.609C321.507 100.982 322.051 101.515 322.446 102.209C322.851 102.902 323.054 103.702 323.054 104.609C323.054 105.515 322.846 106.315 322.43 107.009C322.024 107.702 321.47 108.241 320.766 108.625C320.072 108.998 319.294 109.185 318.43 109.185ZM318.43 107.233C318.835 107.233 319.214 107.137 319.566 106.945C319.928 106.742 320.216 106.443 320.43 106.049C320.643 105.654 320.75 105.174 320.75 104.609C320.75 103.766 320.526 103.121 320.078 102.673C319.64 102.214 319.102 101.985 318.462 101.985C317.822 101.985 317.283 102.214 316.846 102.673C316.419 103.121 316.206 103.766 316.206 104.609C316.206 105.451 316.414 106.102 316.83 106.561C317.256 107.009 317.79 107.233 318.43 107.233ZM326.937 97.2005V109.041H324.697V97.2005H326.937ZM332.846 106.977L335.086 100.177H337.47L334.19 109.041H331.47L328.206 100.177H330.606L332.846 106.977ZM346.968 104.417C346.968 104.737 346.947 105.025 346.904 105.281H340.424C340.477 105.921 340.701 106.422 341.096 106.785C341.491 107.147 341.976 107.329 342.552 107.329C343.384 107.329 343.976 106.971 344.328 106.257H346.744C346.488 107.11 345.997 107.814 345.272 108.369C344.547 108.913 343.656 109.185 342.6 109.185C341.747 109.185 340.979 108.998 340.296 108.625C339.624 108.241 339.096 107.702 338.712 107.009C338.339 106.315 338.152 105.515 338.152 104.609C338.152 103.691 338.339 102.886 338.712 102.193C339.085 101.499 339.608 100.966 340.28 100.593C340.952 100.219 341.725 100.033 342.6 100.033C343.443 100.033 344.195 100.214 344.856 100.577C345.528 100.939 346.045 101.457 346.408 102.129C346.781 102.79 346.968 103.553 346.968 104.417ZM344.648 103.777C344.637 103.201 344.429 102.742 344.024 102.401C343.619 102.049 343.123 101.873 342.536 101.873C341.981 101.873 341.512 102.043 341.128 102.385C340.755 102.715 340.525 103.179 340.44 103.777H344.648ZM350.843 101.553C351.131 101.083 351.504 100.715 351.963 100.449C352.432 100.182 352.966 100.049 353.563 100.049V102.401H352.971C352.267 102.401 351.734 102.566 351.371 102.897C351.019 103.227 350.843 103.803 350.843 104.625V109.041H348.603V100.177H350.843V101.553Z" fill="#191919"/>
<path d="M269.113 169.983C269.166 168.917 269.539 168.095 270.233 167.519C270.937 166.933 271.859 166.639 273.001 166.639C273.779 166.639 274.446 166.778 275.001 167.055C275.555 167.322 275.971 167.69 276.249 168.159C276.537 168.618 276.681 169.141 276.681 169.727C276.681 170.399 276.505 170.97 276.153 171.439C275.811 171.898 275.401 172.207 274.921 172.367V172.431C275.539 172.623 276.019 172.965 276.361 173.455C276.713 173.946 276.889 174.575 276.889 175.343C276.889 175.983 276.739 176.554 276.441 177.055C276.153 177.557 275.721 177.951 275.145 178.239C274.579 178.517 273.897 178.655 273.097 178.655C271.891 178.655 270.91 178.351 270.153 177.743C269.395 177.135 268.995 176.239 268.953 175.055H271.129C271.15 175.578 271.326 175.999 271.657 176.319C271.998 176.629 272.462 176.783 273.049 176.783C273.593 176.783 274.009 176.634 274.297 176.335C274.595 176.026 274.745 175.631 274.745 175.151C274.745 174.511 274.542 174.053 274.137 173.775C273.731 173.498 273.102 173.359 272.249 173.359H271.785V171.519H272.249C273.763 171.519 274.521 171.013 274.521 169.999C274.521 169.541 274.382 169.183 274.105 168.927C273.838 168.671 273.449 168.543 272.937 168.543C272.435 168.543 272.046 168.682 271.769 168.959C271.502 169.226 271.347 169.567 271.305 169.983H269.113ZM279.907 178.687C279.501 178.687 279.165 178.565 278.899 178.319C278.643 178.063 278.515 177.749 278.515 177.375C278.515 177.002 278.643 176.693 278.899 176.447C279.165 176.191 279.501 176.063 279.907 176.063C280.301 176.063 280.627 176.191 280.883 176.447C281.139 176.693 281.267 177.002 281.267 177.375C281.267 177.749 281.139 178.063 280.883 178.319C280.627 178.565 280.301 178.687 279.907 178.687ZM289.123 167.407V178.575H286.883V167.407H289.123ZM296.249 169.583C297.305 169.583 298.158 169.919 298.809 170.591C299.459 171.253 299.785 172.181 299.785 173.375V178.575H297.545V173.679C297.545 172.975 297.369 172.437 297.017 172.063C296.665 171.679 296.185 171.487 295.577 171.487C294.958 171.487 294.467 171.679 294.105 172.063C293.753 172.437 293.577 172.975 293.577 173.679V178.575H291.337V169.711H293.577V170.815C293.875 170.431 294.254 170.133 294.713 169.919C295.182 169.695 295.694 169.583 296.249 169.583ZM305.307 178.719C304.581 178.719 303.931 178.591 303.355 178.335C302.779 178.069 302.32 177.711 301.979 177.263C301.648 176.815 301.467 176.319 301.435 175.775H303.691C303.733 176.117 303.899 176.399 304.187 176.623C304.485 176.847 304.853 176.959 305.291 176.959C305.717 176.959 306.048 176.874 306.283 176.703C306.528 176.533 306.651 176.314 306.651 176.047C306.651 175.759 306.501 175.546 306.203 175.407C305.915 175.258 305.451 175.098 304.811 174.927C304.149 174.767 303.605 174.602 303.179 174.431C302.763 174.261 302.4 173.999 302.091 173.647C301.792 173.295 301.643 172.821 301.643 172.223C301.643 171.733 301.781 171.285 302.059 170.879C302.347 170.474 302.752 170.154 303.275 169.919C303.808 169.685 304.432 169.567 305.147 169.567C306.203 169.567 307.045 169.834 307.675 170.367C308.304 170.89 308.651 171.599 308.715 172.495H306.571C306.539 172.143 306.389 171.866 306.123 171.663C305.867 171.45 305.52 171.343 305.083 171.343C304.677 171.343 304.363 171.418 304.139 171.567C303.925 171.717 303.819 171.925 303.819 172.191C303.819 172.49 303.968 172.719 304.267 172.879C304.565 173.029 305.029 173.183 305.659 173.343C306.299 173.503 306.827 173.669 307.243 173.839C307.659 174.01 308.016 174.277 308.315 174.639C308.624 174.991 308.784 175.461 308.795 176.047C308.795 176.559 308.651 177.018 308.363 177.423C308.085 177.829 307.68 178.149 307.147 178.383C306.624 178.607 306.011 178.719 305.307 178.719ZM312.873 170.991C313.161 170.586 313.556 170.25 314.057 169.983C314.569 169.706 315.151 169.567 315.801 169.567C316.559 169.567 317.241 169.754 317.849 170.127C318.468 170.501 318.953 171.034 319.305 171.727C319.668 172.41 319.849 173.205 319.849 174.111C319.849 175.018 319.668 175.823 319.305 176.527C318.953 177.221 318.468 177.759 317.849 178.143C317.241 178.527 316.559 178.719 315.801 178.719C315.151 178.719 314.575 178.586 314.073 178.319C313.583 178.053 313.183 177.717 312.873 177.311V182.799H310.633V169.711H312.873V170.991ZM317.561 174.111C317.561 173.578 317.449 173.119 317.225 172.735C317.012 172.341 316.724 172.042 316.361 171.839C316.009 171.637 315.625 171.535 315.209 171.535C314.804 171.535 314.42 171.642 314.057 171.855C313.705 172.058 313.417 172.357 313.193 172.751C312.98 173.146 312.873 173.61 312.873 174.143C312.873 174.677 312.98 175.141 313.193 175.535C313.417 175.93 313.705 176.234 314.057 176.447C314.42 176.65 314.804 176.751 315.209 176.751C315.625 176.751 316.009 176.645 316.361 176.431C316.724 176.218 317.012 175.914 317.225 175.519C317.449 175.125 317.561 174.655 317.561 174.111ZM322.613 168.655C322.219 168.655 321.888 168.533 321.621 168.287C321.365 168.031 321.237 167.717 321.237 167.343C321.237 166.97 321.365 166.661 321.621 166.415C321.888 166.159 322.219 166.031 322.613 166.031C323.008 166.031 323.333 166.159 323.589 166.415C323.856 166.661 323.989 166.97 323.989 167.343C323.989 167.717 323.856 168.031 323.589 168.287C323.333 168.533 323.008 168.655 322.613 168.655ZM323.717 169.711V178.575H321.477V169.711H323.717ZM328.17 171.087C328.458 170.618 328.832 170.25 329.29 169.983C329.76 169.717 330.293 169.583 330.89 169.583V171.935H330.298C329.594 171.935 329.061 172.101 328.698 172.431C328.346 172.762 328.17 173.338 328.17 174.159V178.575H325.93V169.711H328.17V171.087ZM331.823 174.111C331.823 173.215 331.999 172.421 332.351 171.727C332.714 171.034 333.199 170.501 333.807 170.127C334.426 169.754 335.114 169.567 335.871 169.567C336.532 169.567 337.108 169.701 337.599 169.967C338.1 170.234 338.5 170.57 338.799 170.975V169.711H341.055V178.575H338.799V177.279C338.511 177.695 338.111 178.042 337.599 178.319C337.098 178.586 336.516 178.719 335.855 178.719C335.108 178.719 334.426 178.527 333.807 178.143C333.199 177.759 332.714 177.221 332.351 176.527C331.999 175.823 331.823 175.018 331.823 174.111ZM338.799 174.143C338.799 173.599 338.692 173.135 338.479 172.751C338.266 172.357 337.978 172.058 337.615 171.855C337.252 171.642 336.863 171.535 336.447 171.535C336.031 171.535 335.647 171.637 335.295 171.839C334.943 172.042 334.655 172.341 334.431 172.735C334.218 173.119 334.111 173.578 334.111 174.111C334.111 174.645 334.218 175.114 334.431 175.519C334.655 175.914 334.943 176.218 335.295 176.431C335.658 176.645 336.042 176.751 336.447 176.751C336.863 176.751 337.252 176.65 337.615 176.447C337.978 176.234 338.266 175.935 338.479 175.551C338.692 175.157 338.799 174.687 338.799 174.143ZM345.483 171.087C345.771 170.618 346.144 170.25 346.603 169.983C347.072 169.717 347.605 169.583 348.203 169.583V171.935H347.611C346.907 171.935 346.373 172.101 346.011 172.431C345.659 172.762 345.483 173.338 345.483 174.159V178.575H343.243V169.711H345.483V171.087Z" fill="#191919"/>
<path d="M298.938 253.327V251.567L304.17 244.079H306.778V251.375H308.186V253.327H306.778V255.599H304.538V253.327H298.938ZM304.682 246.479L301.402 251.375H304.682V246.479ZM310.86 255.711C310.455 255.711 310.119 255.588 309.852 255.343C309.596 255.087 309.468 254.772 309.468 254.399C309.468 254.026 309.596 253.716 309.852 253.471C310.119 253.215 310.455 253.087 310.86 253.087C311.255 253.087 311.58 253.215 311.836 253.471C312.092 253.716 312.22 254.026 312.22 254.399C312.22 254.772 312.092 255.087 311.836 255.343C311.58 255.588 311.255 255.711 310.86 255.711ZM320.077 244.431V255.599H317.837V244.431H320.077ZM327.202 246.607C328.258 246.607 329.111 246.943 329.762 247.615C330.413 248.276 330.738 249.204 330.738 250.399V255.599H328.498V250.703C328.498 249.999 328.322 249.46 327.97 249.087C327.618 248.703 327.138 248.511 326.53 248.511C325.911 248.511 325.421 248.703 325.058 249.087C324.706 249.46 324.53 249.999 324.53 250.703V255.599H322.29V246.735H324.53V247.839C324.829 247.455 325.207 247.156 325.666 246.943C326.135 246.719 326.647 246.607 327.202 246.607ZM336.804 255.743C335.951 255.743 335.183 255.556 334.5 255.183C333.817 254.799 333.279 254.26 332.884 253.567C332.5 252.874 332.308 252.074 332.308 251.167C332.308 250.26 332.505 249.46 332.9 248.767C333.305 248.074 333.855 247.54 334.548 247.167C335.241 246.783 336.015 246.591 336.868 246.591C337.721 246.591 338.495 246.783 339.188 247.167C339.881 247.54 340.425 248.074 340.82 248.767C341.225 249.46 341.428 250.26 341.428 251.167C341.428 252.074 341.22 252.874 340.804 253.567C340.399 254.26 339.844 254.799 339.14 255.183C338.447 255.556 337.668 255.743 336.804 255.743ZM336.804 253.791C337.209 253.791 337.588 253.695 337.94 253.503C338.303 253.3 338.591 253.002 338.804 252.607C339.017 252.212 339.124 251.732 339.124 251.167C339.124 250.324 338.9 249.679 338.452 249.231C338.015 248.772 337.476 248.543 336.836 248.543C336.196 248.543 335.657 248.772 335.22 249.231C334.793 249.679 334.58 250.324 334.58 251.167C334.58 252.01 334.788 252.66 335.204 253.119C335.631 253.567 336.164 253.791 336.804 253.791ZM346.767 253.535L349.007 246.735H351.391L348.111 255.599H345.391L342.127 246.735H344.527L346.767 253.535ZM352.073 251.135C352.073 250.239 352.249 249.444 352.601 248.751C352.964 248.058 353.449 247.524 354.057 247.151C354.676 246.778 355.364 246.591 356.121 246.591C356.783 246.591 357.359 246.724 357.849 246.991C358.351 247.258 358.751 247.594 359.049 247.999V246.735H361.305V255.599H359.049V254.303C358.761 254.719 358.361 255.066 357.849 255.343C357.348 255.61 356.767 255.743 356.105 255.743C355.359 255.743 354.676 255.551 354.057 255.167C353.449 254.783 352.964 254.244 352.601 253.551C352.249 252.847 352.073 252.042 352.073 251.135ZM359.049 251.167C359.049 250.623 358.943 250.159 358.729 249.775C358.516 249.38 358.228 249.082 357.865 248.879C357.503 248.666 357.113 248.559 356.697 248.559C356.281 248.559 355.897 248.66 355.545 248.863C355.193 249.066 354.905 249.364 354.681 249.759C354.468 250.143 354.361 250.602 354.361 251.135C354.361 251.668 354.468 252.138 354.681 252.543C354.905 252.938 355.193 253.242 355.545 253.455C355.908 253.668 356.292 253.775 356.697 253.775C357.113 253.775 357.503 253.674 357.865 253.471C358.228 253.258 358.516 252.959 358.729 252.575C358.943 252.18 359.049 251.711 359.049 251.167ZM365.733 248.111C366.021 247.642 366.394 247.274 366.853 247.007C367.322 246.74 367.856 246.607 368.453 246.607V248.959H367.861C367.157 248.959 366.624 249.124 366.261 249.455C365.909 249.786 365.733 250.362 365.733 251.183V255.599H363.493V246.735H365.733V248.111Z" fill="#191919"/>
<defs>
<filter id="filter0_d_60_6" x="0" y="222.94" width="295.914" height="60.9497" filterUnits="userSpaceOnUse" color-interpolation-filters="sRGB">
<feFlood flood-opacity="0" result="BackgroundImageFix"/>
<feColorMatrix in="SourceAlpha" type="matrix" values="0 0 0 0 0 0 0 0 0 0 0 0 0 0 0 0 0 0 127 0" result="hardAlpha"/>
<feOffset dy="4"/>
<feGaussianBlur stdDeviation="2"/>
<feComposite in2="hardAlpha" operator="out"/>
<feColorMatrix type="matrix" values="0 0 0 0 0 0 0 0 0 0 0 0 0 0 0 0 0 0 0.25 0"/>
<feBlend mode="normal" in2="BackgroundImageFix" result="effect1_dropShadow_60_6"/>
<feBlend mode="normal" in="SourceGraphic" in2="effect1_dropShadow_60_6" result="shape"/>
</filter>
<filter id="filter1_d_60_6" x="36.4029" y="146.825" width="222.005" height="60.9497" filterUnits="userSpaceOnUse" color-interpolation-filters="sRGB">
<feFlood flood-opacity="0" result="BackgroundImageFix"/>
<feColorMatrix in="SourceAlpha" type="matrix" values="0 0 0 0 0 0 0 0 0 0 0 0 0 0 0 0 0 0 127 0" result="hardAlpha"/>
<feOffset dy="4"/>
<feGaussianBlur stdDeviation="2"/>
<feComposite in2="hardAlpha" operator="out"/>
<feColorMatrix type="matrix" values="0 0 0 0 0 0 0 0 0 0 0 0 0 0 0 0 0 0 0.25 0"/>
<feBlend mode="normal" in2="BackgroundImageFix" result="effect1_dropShadow_60_6"/>
<feBlend mode="normal" in="SourceGraphic" in2="effect1_dropShadow_60_6" result="shape"/>
</filter>
<filter id="filter2_d_60_6" x="75.5636" y="70.71" width="144.235" height="60.9497" filterUnits="userSpaceOnUse" color-interpolation-filters="sRGB">
<feFlood flood-opacity="0" result="BackgroundImageFix"/>
<feColorMatrix in="SourceAlpha" type="matrix" values="0 0 0 0 0 0 0 0 0 0 0 0 0 0 0 0 0 0 127 0" result="hardAlpha"/>
<feOffset dy="4"/>
<feGaussianBlur stdDeviation="2"/>
<feComposite in2="hardAlpha" operator="out"/>
<feColorMatrix type="matrix" values="0 0 0 0 0 0 0 0 0 0 0 0 0 0 0 0 0 0 0.25 0"/>
<feBlend mode="normal" in2="BackgroundImageFix" result="effect1_dropShadow_60_6"/>
<feBlend mode="normal" in="SourceGraphic" in2="effect1_dropShadow_60_6" result="shape"/>
</filter>
<filter id="filter3_d_60_6" x="110.555" y="0.110352" width="68.1856" height="60.9497" filterUnits="userSpaceOnUse" color-interpolation-filters="sRGB">
<feFlood flood-opacity="0" result="BackgroundImageFix"/>
<feColorMatrix in="SourceAlpha" type="matrix" values="0 0 0 0 0 0 0 0 0 0 0 0 0 0 0 0 0 0 127 0" result="hardAlpha"/>
<feOffset dy="4"/>
<feGaussianBlur stdDeviation="2"/>
<feComposite in2="hardAlpha" operator="out"/>
<feColorMatrix type="matrix" values="0 0 0 0 0 0 0 0 0 0 0 0 0 0 0 0 0 0 0.25 0"/>
<feBlend mode="normal" in2="BackgroundImageFix" result="effect1_dropShadow_60_6"/>
<feBlend mode="normal" in="SourceGraphic" in2="effect1_dropShadow_60_6" result="shape"/>
</filter>
<linearGradient id="paint0_linear_60_6" x1="163.401" y1="200.326" x2="68.6218" y2="138.062" gradientUnits="userSpaceOnUse">
<stop offset="0.634972" stop-color="#51277C"/>
<stop offset="1" stop-color="#2B0C4C"/>
</linearGradient>
<linearGradient id="paint1_linear_60_6" x1="152.171" y1="148.48" x2="80.5742" y2="103.336" gradientUnits="userSpaceOnUse">
<stop offset="0.727949" stop-color="#51277C"/>
<stop offset="1" stop-color="#2B0C4C"/>
</linearGradient>
<linearGradient id="paint2_linear_60_6" x1="150.715" y1="72.3646" x2="111.723" y2="51.775" gradientUnits="userSpaceOnUse">
<stop offset="0.599972" stop-color="#51277C"/>
<stop offset="1" stop-color="#2B0C4C"/>
</linearGradient>
<linearGradient id="paint3_linear_60_6" x1="197.046" y1="45.8897" x2="132.642" y2="-3.91567" gradientUnits="userSpaceOnUse">
<stop offset="0.630043" stop-color="#51277C"/>
<stop offset="1" stop-color="#2B0C4C"/>
</linearGradient>
</defs>
</svg>
